<svg width="26" height="25" viewBox="0 0 26 25" fill="none" xmlns="http://www.w3.org/2000/svg">
<path d="M22.1667 0H3.83333C1.99238 0 0.5 1.49238 0.5 3.33333V21.6667C0.5 23.5076 1.99238 25 3.83333 25H22.1667C24.0076 25 25.5 23.5076 25.5 21.6667V3.33333C25.5 1.49238 24.0076 0 22.1667 0Z" fill="#FF0000"/>
<path d="M11.1692 20.1198H4.39258C3.97758 20.1198 3.64258 19.7848 3.64258 19.3698V11.2282C3.64258 11.0032 3.74424 10.7882 3.91924 10.6465L10.8159 5.03984C11.0909 4.81484 11.4859 4.81484 11.7626 5.03984L18.6592 10.6482C18.9809 10.9098 19.0292 11.3815 18.7676 11.7032C18.5059 12.0248 18.0342 12.0732 17.7126 11.8115L11.2892 6.58818L5.14258 11.5865V18.6215H11.1692C11.5842 18.6215 11.9192 18.9565 11.9192 19.3715C11.9192 19.7865 11.5842 20.1215 11.1692 20.1215V20.1198Z" fill="white"/>
<path d="M18.185 18.1782C15.8467 18.1782 13.9434 16.2749 13.9434 13.9365C13.9434 13.5215 14.2784 13.1865 14.6934 13.1865C15.1084 13.1865 15.4434 13.5215 15.4434 13.9365C15.4434 15.4482 16.6734 16.6782 18.185 16.6782C19.6967 16.6782 20.9267 15.4482 20.9267 13.9365C20.9267 13.5215 21.2617 13.1865 21.6767 13.1865C22.0917 13.1865 22.4267 13.5215 22.4267 13.9365C22.4267 16.2749 20.5234 18.1782 18.185 18.1782Z" fill="white"/>
</svg>
